<?xml version="1.0" encoding="UTF-8" standalone="no"?>
<svg
   xmlns:dc="http://purl.org/dc/elements/1.1/"
   xmlns:cc="http://creativecommons.org/ns#"
   xmlns:rdf="http://www.w3.org/1999/02/22-rdf-syntax-ns#"
   xmlns:svg="http://www.w3.org/2000/svg"
   xmlns="http://www.w3.org/2000/svg"
   xmlns:sodipodi="http://sodipodi.sourceforge.net/DTD/sodipodi-0.dtd"
   xmlns:inkscape="http://www.inkscape.org/namespaces/inkscape"
   height="1240px"
   version="1.1"
   width="1240px"
   id="svg1926"
   sodipodi:docname="7812.svg"
   inkscape:version="0.92.1 r15371">
  <metadata
     id="metadata1930">
    <rdf:RDF>
      <cc:Work
         rdf:about="">
        <dc:format>image/svg+xml</dc:format>
        <dc:type
           rdf:resource="http://purl.org/dc/dcmitype/StillImage" />
        <dc:title />
      </cc:Work>
    </rdf:RDF>
  </metadata>
  <sodipodi:namedview
     pagecolor="#ffffff"
     bordercolor="#666666"
     borderopacity="1"
     objecttolerance="10"
     gridtolerance="10"
     guidetolerance="10"
     inkscape:pageopacity="0"
     inkscape:pageshadow="2"
     inkscape:window-width="1366"
     inkscape:window-height="703"
     id="namedview1928"
     showgrid="false"
     inkscape:zoom="0.19032259"
     inkscape:cx="-126.67688"
     inkscape:cy="699.17617"
     inkscape:window-x="0"
     inkscape:window-y="0"
     inkscape:window-maximized="1"
     inkscape:current-layer="svg1926" />
  <defs
     id="defs2" />
  <rect
     style="fill:#303030;fill-opacity:1;stroke:#4d4d4d;stroke-width:0.93289912"
     id="rect6413"
     width="1239.067"
     height="1239.0671"
     x="0.46644956"
     y="0.46643454"
     clip-path="none" />
  <g
     id="g26">
    <path
       id="rect276"
       d="m 480,160 v 40 h 40 v 40 40 40 h -40 -40 -40 v 40 40 40 40 h -40 -40 -40 -40 v 40 h 40 40 40 40 v 40 40 40 40 h -40 -40 -40 -40 v 40 h 40 40 40 40 v 40 40 40 40 h -40 -40 -40 -40 v 40 h 40 40 40 40 v 40 40 40 40 h 40 40 40 40 40 40 40 40 40 40 40 v -40 -40 -40 -40 h 40 40 40 40 v -40 h -40 -40 -40 -40 v -40 -40 -40 -40 h 40 40 40 40 v -40 h -40 -40 -40 -40 v -40 -40 -40 -40 h 40 40 40 40 v -40 h -40 -40 -40 -40 v -40 -40 -40 -40 h -40 -40 -40 v -40 -40 -40 h 40 v -40 h -40 -40 v 40 40 40 40 h -40 -40 -40 v -40 -40 -40 -40 h -40 z m -40,200 h 40 40 40 40 40 40 40 40 40 v 40 40 40 40 40 40 40 40 40 40 40 40 40 40 40 40 40 h -40 -40 -40 -40 -40 -40 -40 -40 -40 v -40 -40 -40 -40 -40 -40 -40 -40 -40 -40 -40 -40 -40 -40 -40 -40 z"
       style="fill:#ffffff;stroke:#4d4d4d"
       inkscape:connector-curvature="0" />
    <g
       id="g16">
      <path
         style="fill:#ffffff;stroke:#4d4d4d"
         d="m 680,440 v 40 40 h -40 -40 -40 -40 v 40 h 40 40 40 40 40 v -40 -40 -40 z"
         id="rect720"
         inkscape:connector-curvature="0" />
      <path
         style="fill:#ffffff;stroke:#4d4d4d"
         d="m 520,600 v 40 40 40 h 40 40 40 40 40 v -40 -40 -40 h -40 -40 -40 -40 z m 40,40 h 40 v 40 h -40 z m 80,0 h 40 v 40 h -40 z"
         id="rect960"
         inkscape:connector-curvature="0" />
      <path
         style="fill:#ffffff;stroke:#4d4d4d"
         d="m 520,760 v 40 h 40 40 40 40 40 v -40 h -40 -40 -40 -40 z"
         id="rect1208"
         inkscape:connector-curvature="0" />
      <path
         style="fill:#ffffff;stroke:#4d4d4d"
         d="m 520,840 v 40 40 40 h 40 v -40 -40 h 40 v 40 40 h 40 40 40 v -40 -40 -40 h -40 v 40 40 h -40 v -40 -40 h -40 -40 z"
         id="rect1332"
         inkscape:connector-curvature="0" />
    </g>
  </g>
</svg>
